G04 --- HEADER BEGIN --- *
%TF.GenerationSoftware,LibrePCB,LibrePCB,0.1.0*%
%TF.CreationDate,2018-08-01T23:36:33*%
%TF.ProjectId,My first project - default,95d86095-1982-49ec-9766-8fcddb3e5e54,v1*%
%TF.Part,Single*%
%FSLAX66Y66*%
%MOMM*%
G01*
G74*
G04 --- HEADER END --- *
G04 --- APERTURE LIST BEGIN --- *
%ADD10C,0.25*%
%ADD11C,0.2*%
%ADD12R,1.7X1.5*%
%ADD13R,1.5X1.7*%
%ADD14R,1.26X0.85*%
G04 --- APERTURE LIST END --- *
G04 --- BOARD BEGIN --- *
D10*
X6970000Y14325000D02*
X8270000Y14325000D01*
X8270000Y11075000D01*
X6970000Y11075000D01*
X6970000Y14325000D01*
D11*
X2222500Y10413611D02*
X1745833Y10080278D01*
X2222500Y9842500D02*
X1222500Y9842500D01*
X1222500Y10223611D01*
X1270278Y10319167D01*
X1318056Y10365833D01*
X1412500Y10413611D01*
X1555833Y10413611D01*
X1651389Y10365833D01*
X1699167Y10319167D01*
X1745833Y10223611D01*
X1745833Y9842500D01*
X1318056Y10861389D02*
X1270278Y10909167D01*
X1222500Y11003611D01*
X1222500Y11242500D01*
X1270278Y11336944D01*
X1318056Y11384722D01*
X1412500Y11432500D01*
X1508056Y11432500D01*
X1651389Y11384722D01*
X2222500Y10813611D01*
X2222500Y11432500D01*
X13316389Y8207500D02*
X12983056Y8684167D01*
X12745278Y8207500D02*
X12745278Y9207500D01*
X13126389Y9207500D01*
X13221945Y9159722D01*
X13268611Y9111944D01*
X13316389Y9017500D01*
X13316389Y8874167D01*
X13268611Y8778611D01*
X13221945Y8730833D01*
X13126389Y8684167D01*
X12745278Y8684167D01*
X14287500Y8207500D02*
X13716389Y8207500D01*
X14001945Y8207500D02*
X14001945Y9207500D01*
X13906389Y9064167D01*
X13811945Y8969722D01*
X13716389Y8921944D01*
X6320000Y14000000D02*
X6320000Y15000000D01*
X7338889Y14095556D02*
X7291111Y14047778D01*
X7148889Y14000000D01*
X7053333Y14000000D01*
X6910000Y14047778D01*
X6815556Y14143333D01*
X6767778Y14237778D01*
X6720000Y14428889D01*
X6720000Y14571111D01*
X6767778Y14762222D01*
X6815556Y14856667D01*
X6910000Y14952222D01*
X7053333Y15000000D01*
X7148889Y15000000D01*
X7291111Y14952222D01*
X7338889Y14904444D01*
X8310000Y14000000D02*
X7738889Y14000000D01*
X8024445Y14000000D02*
X8024445Y15000000D01*
X7928889Y14856667D01*
X7834445Y14762222D01*
X7738889Y14714444D01*
X11731389Y15653056D02*
X11683611Y15605278D01*
X11541389Y15557500D01*
X11445833Y15557500D01*
X11302500Y15605278D01*
X11208056Y15700833D01*
X11160278Y15795278D01*
X11112500Y15986389D01*
X11112500Y16128611D01*
X11160278Y16319722D01*
X11208056Y16414167D01*
X11302500Y16509722D01*
X11445833Y16557500D01*
X11541389Y16557500D01*
X11683611Y16509722D01*
X11731389Y16461944D01*
X12702500Y15557500D02*
X12131389Y15557500D01*
X12416945Y15557500D02*
X12416945Y16557500D01*
X12321389Y16414167D01*
X12226945Y16319722D01*
X12131389Y16271944D01*
X6603611Y18097500D02*
X6270278Y18574167D01*
X6032500Y18097500D02*
X6032500Y19097500D01*
X6413611Y19097500D01*
X6509167Y19049722D01*
X6555833Y19001944D01*
X6603611Y18907500D01*
X6603611Y18764167D01*
X6555833Y18668611D01*
X6509167Y18620833D01*
X6413611Y18574167D01*
X6032500Y18574167D01*
X7003611Y19097500D02*
X7622500Y19097500D01*
X7289167Y18716389D01*
X7432500Y18716389D01*
X7526944Y18668611D01*
X7574722Y18620833D01*
X7622500Y18526389D01*
X7622500Y18287500D01*
X7574722Y18193056D01*
X7526944Y18145278D01*
X7432500Y18097500D01*
X7146944Y18097500D01*
X7051389Y18145278D01*
X7003611Y18193056D01*
%LPC*%
D12*
X2540000Y12380000D03*
X2540000Y10480000D03*
D13*
X11750000Y9525000D03*
X13650000Y9525000D03*
D14*
X6620000Y11700000D03*
X6620000Y12700000D03*
X6620000Y13700000D03*
X8620000Y11700000D03*
X8620000Y13700000D03*
D13*
X11850000Y15240000D03*
X13550000Y15240000D03*
X8570000Y17780000D03*
X6670000Y17780000D03*
G04 --- BOARD END --- *
%TF.MD5,ebac8ad9a3bc231549bb88ec2d8267d2*%
M02*
